<mxfile host="app.diagrams.net" agent="Mozilla/5.0 (X11; Linux x86_64) AppleWebKit/537.36 (KHTML, like Gecko) Chrome/139.0.0.0 Safari/537.36" version="28.1.0" pages="2">
  <diagram id="seq_watch" name="SEQ - Aggiunta a Watchlist">
    <mxGraphModel dx="1426" dy="825" grid="1" gridSize="10" guides="1" tooltips="1" connect="1" arrows="1" fold="1" page="1" pageScale="1" pageWidth="2400" pageHeight="1500" background="#ffffff" math="0" shadow="0">
      <root>
        <mxCell id="0" />
        <mxCell id="1" parent="0" />
        <mxCell id="ac_user" value="Utente" style="shape=umlActor;verticalLabelPosition=bottom;verticalAlign=top;html=1;fontSize=14;labelBackgroundColor=none;" parent="1" vertex="1">
          <mxGeometry x="40" y="80" width="60" height="120" as="geometry" />
        </mxCell>
        <mxCell id="ll_client" value="Browser/Client" style="shape=umlLifeline;perimeter=lifelinePerimeter;html=1;container=1;collapsible=0;recursiveResize=0;outlineConnect=0;fontSize=14;labelBackgroundColor=none;" parent="1" vertex="1">
          <mxGeometry x="273" y="80" width="160" height="700" as="geometry" />
        </mxCell>
        <mxCell id="X0BImHPUpjSI5dWnOmFU-23" value="" style="html=1;points=[[0,0,0,0,5],[0,1,0,0,-5],[1,0,0,0,5],[1,1,0,0,-5]];perimeter=orthogonalPerimeter;outlineConnect=0;targetShapes=umlLifeline;portConstraint=eastwest;newEdgeStyle={&quot;curved&quot;:0,&quot;rounded&quot;:0};" vertex="1" parent="ll_client">
          <mxGeometry x="75" y="80" width="10" height="440" as="geometry" />
        </mxCell>
        <mxCell id="ll_api" value="API PHP (REST)" style="shape=umlLifeline;perimeter=lifelinePerimeter;html=1;container=1;collapsible=0;recursiveResize=0;outlineConnect=0;fontSize=14;labelBackgroundColor=none;" parent="1" vertex="1">
          <mxGeometry x="557" y="80" width="160" height="700" as="geometry" />
        </mxCell>
        <mxCell id="X0BImHPUpjSI5dWnOmFU-11" value="" style="html=1;align=left;spacingLeft=2;endArrow=block;rounded=0;edgeStyle=orthogonalEdgeStyle;curved=0;rounded=0;" edge="1" parent="ll_api">
          <mxGeometry relative="1" as="geometry">
            <mxPoint x="83" y="240" as="sourcePoint" />
            <Array as="points">
              <mxPoint x="113" y="270" />
            </Array>
            <mxPoint x="88" y="270" as="targetPoint" />
          </mxGeometry>
        </mxCell>
        <mxCell id="X0BImHPUpjSI5dWnOmFU-12" value="&lt;font style=&quot;font-size: 12px;&quot;&gt;3) Valida sessione e payload&lt;/font&gt;" style="edgeLabel;html=1;align=center;verticalAlign=middle;resizable=0;points=[];" vertex="1" connectable="0" parent="X0BImHPUpjSI5dWnOmFU-11">
          <mxGeometry x="0.0588" y="5" relative="1" as="geometry">
            <mxPoint x="75" as="offset" />
          </mxGeometry>
        </mxCell>
        <mxCell id="X0BImHPUpjSI5dWnOmFU-24" value="" style="html=1;points=[[0,0,0,0,5],[0,1,0,0,-5],[1,0,0,0,5],[1,1,0,0,-5]];perimeter=orthogonalPerimeter;outlineConnect=0;targetShapes=umlLifeline;portConstraint=eastwest;newEdgeStyle={&quot;curved&quot;:0,&quot;rounded&quot;:0};" vertex="1" parent="ll_api">
          <mxGeometry x="75" y="160" width="10" height="360" as="geometry" />
        </mxCell>
        <mxCell id="ll_db" value="DB MySQL" style="shape=umlLifeline;perimeter=lifelinePerimeter;html=1;container=1;collapsible=0;recursiveResize=0;outlineConnect=0;fontSize=14;labelBackgroundColor=none;" parent="1" vertex="1">
          <mxGeometry x="840" y="80" width="160" height="700" as="geometry" />
        </mxCell>
        <mxCell id="X0BImHPUpjSI5dWnOmFU-25" value="" style="html=1;points=[[0,0,0,0,5],[0,1,0,0,-5],[1,0,0,0,5],[1,1,0,0,-5]];perimeter=orthogonalPerimeter;outlineConnect=0;targetShapes=umlLifeline;portConstraint=eastwest;newEdgeStyle={&quot;curved&quot;:0,&quot;rounded&quot;:0};" vertex="1" parent="ll_db">
          <mxGeometry x="75" y="360" width="10" height="80" as="geometry" />
        </mxCell>
        <mxCell id="X0BImHPUpjSI5dWnOmFU-3" value="" style="edgeStyle=none;orthogonalLoop=1;jettySize=auto;html=1;rounded=0;" edge="1" parent="1">
          <mxGeometry width="80" relative="1" as="geometry">
            <mxPoint x="100" y="160" as="sourcePoint" />
            <mxPoint x="352.5" y="160" as="targetPoint" />
            <Array as="points" />
          </mxGeometry>
        </mxCell>
        <mxCell id="X0BImHPUpjSI5dWnOmFU-4" value="&lt;font style=&quot;font-size: 12px;&quot;&gt;1) Clic su &quot;Aggiungi a watchlist&quot;&lt;/font&gt;" style="edgeLabel;html=1;align=center;verticalAlign=middle;resizable=0;points=[];" vertex="1" connectable="0" parent="X0BImHPUpjSI5dWnOmFU-3">
          <mxGeometry x="-0.1762" y="1" relative="1" as="geometry">
            <mxPoint as="offset" />
          </mxGeometry>
        </mxCell>
        <mxCell id="X0BImHPUpjSI5dWnOmFU-6" value="" style="edgeStyle=none;orthogonalLoop=1;jettySize=auto;html=1;rounded=0;" edge="1" parent="1">
          <mxGeometry width="80" relative="1" as="geometry">
            <mxPoint x="352.5" y="240" as="sourcePoint" />
            <mxPoint x="636.5" y="240" as="targetPoint" />
            <Array as="points" />
          </mxGeometry>
        </mxCell>
        <mxCell id="X0BImHPUpjSI5dWnOmFU-8" value="&lt;font style=&quot;font-size: 12px;&quot;&gt;2) POST /watchlist { prodottoId, soglia? }&lt;/font&gt;" style="edgeLabel;html=1;align=center;verticalAlign=middle;resizable=0;points=[];" vertex="1" connectable="0" parent="X0BImHPUpjSI5dWnOmFU-6">
          <mxGeometry x="-0.0246" y="2" relative="1" as="geometry">
            <mxPoint as="offset" />
          </mxGeometry>
        </mxCell>
        <mxCell id="X0BImHPUpjSI5dWnOmFU-13" value="" style="edgeStyle=none;orthogonalLoop=1;jettySize=auto;html=1;rounded=0;" edge="1" parent="1">
          <mxGeometry width="80" relative="1" as="geometry">
            <mxPoint x="636.5" y="440" as="sourcePoint" />
            <mxPoint x="919.5" y="440" as="targetPoint" />
            <Array as="points" />
          </mxGeometry>
        </mxCell>
        <mxCell id="X0BImHPUpjSI5dWnOmFU-14" value="&lt;font style=&quot;font-size: 12px;&quot;&gt;4) INSERT Watchlist&amp;nbsp;&lt;/font&gt;&lt;div&gt;&lt;font style=&quot;font-size: 12px;&quot;&gt;(utenteId, prodottoId, soglia)&lt;/font&gt;&lt;/div&gt;" style="edgeLabel;html=1;align=center;verticalAlign=middle;resizable=0;points=[];" vertex="1" connectable="0" parent="X0BImHPUpjSI5dWnOmFU-13">
          <mxGeometry x="-0.0777" y="-1" relative="1" as="geometry">
            <mxPoint x="13" as="offset" />
          </mxGeometry>
        </mxCell>
        <mxCell id="X0BImHPUpjSI5dWnOmFU-15" value="" style="edgeStyle=none;orthogonalLoop=1;jettySize=auto;html=1;rounded=0;dashed=1;dashPattern=8 8;" edge="1" parent="1" source="ll_db" target="ll_api">
          <mxGeometry width="80" relative="1" as="geometry">
            <mxPoint x="880" y="520" as="sourcePoint" />
            <mxPoint x="960" y="520" as="targetPoint" />
            <Array as="points">
              <mxPoint x="880" y="520" />
            </Array>
          </mxGeometry>
        </mxCell>
        <mxCell id="X0BImHPUpjSI5dWnOmFU-18" value="&lt;font style=&quot;font-size: 12px;&quot;&gt;5) OK (id)&lt;/font&gt;" style="edgeLabel;html=1;align=center;verticalAlign=middle;resizable=0;points=[];" vertex="1" connectable="0" parent="X0BImHPUpjSI5dWnOmFU-15">
          <mxGeometry x="-0.0707" relative="1" as="geometry">
            <mxPoint x="-8" as="offset" />
          </mxGeometry>
        </mxCell>
        <mxCell id="X0BImHPUpjSI5dWnOmFU-19" value="" style="edgeStyle=none;orthogonalLoop=1;jettySize=auto;html=1;rounded=0;dashed=1;dashPattern=8 8;" edge="1" parent="1" source="ll_api">
          <mxGeometry width="80" relative="1" as="geometry">
            <mxPoint x="500" y="600" as="sourcePoint" />
            <mxPoint x="352.5" y="600" as="targetPoint" />
            <Array as="points" />
          </mxGeometry>
        </mxCell>
        <mxCell id="X0BImHPUpjSI5dWnOmFU-20" value="&lt;font style=&quot;font-size: 12px;&quot;&gt;6) 201 Created&amp;nbsp;&lt;/font&gt;&lt;div&gt;&lt;font style=&quot;font-size: 12px;&quot;&gt;(item watchlist)&lt;/font&gt;&lt;/div&gt;" style="edgeLabel;html=1;align=center;verticalAlign=middle;resizable=0;points=[];" vertex="1" connectable="0" parent="X0BImHPUpjSI5dWnOmFU-19">
          <mxGeometry x="0.0035" y="-2" relative="1" as="geometry">
            <mxPoint as="offset" />
          </mxGeometry>
        </mxCell>
        <mxCell id="X0BImHPUpjSI5dWnOmFU-21" value="" style="edgeStyle=orthogonalEdgeStyle;orthogonalLoop=1;jettySize=auto;html=1;rounded=0;exitX=0.475;exitY=0.859;exitDx=0;exitDy=0;exitPerimeter=0;" edge="1" parent="1" source="ll_client">
          <mxGeometry width="80" relative="1" as="geometry">
            <mxPoint x="210" y="670" as="sourcePoint" />
            <mxPoint x="70" y="230" as="targetPoint" />
          </mxGeometry>
        </mxCell>
        <mxCell id="X0BImHPUpjSI5dWnOmFU-22" value="&lt;font style=&quot;font-size: 12px;&quot;&gt;7) Aggiorna UI e conferma&lt;/font&gt;" style="edgeLabel;html=1;align=center;verticalAlign=middle;resizable=0;points=[];" vertex="1" connectable="0" parent="X0BImHPUpjSI5dWnOmFU-21">
          <mxGeometry x="0.1463" relative="1" as="geometry">
            <mxPoint as="offset" />
          </mxGeometry>
        </mxCell>
      </root>
    </mxGraphModel>
  </diagram>
  <diagram id="95CyfnwpegtF3cFDv6N2" name="Pagina-2">
    <mxGraphModel grid="1" page="1" gridSize="10" guides="1" tooltips="1" connect="1" arrows="1" fold="1" pageScale="1" pageWidth="827" pageHeight="1169" math="0" shadow="0">
      <root>
        <mxCell id="0" />
        <mxCell id="1" parent="0" />
      </root>
    </mxGraphModel>
  </diagram>
</mxfile>
